<?xml version="1.0" encoding="UTF-8" standalone="no"?>
<svg width="512px" height="512px" viewBox="0 0 512 512" version="1.1" xmlns="http://www.w3.org/2000/svg" xmlns:xlink="http://www.w3.org/1999/xlink">
    <!-- Generator: Sketch 3.7.2 (28276) - http://www.bohemiancoding.com/sketch -->
    <title>youtube</title>
    <desc>Created with Sketch.</desc>
    <defs>
        <polygon id="path-1" points="387.790814 136.942107 387.790814 273.664521 0 273.664521 0 136.942107 0 0.219692853 387.790814 0.219692853"></polygon>
    </defs>
    <g id="Page-1" stroke="none" stroke-width="1" fill="none" fill-rule="evenodd">
        <g id="youtube">
            <g id="Page-1" transform="translate(62.000000, 120.000000)">
                <polygon id="Fill-1" fill="#ffffff" points="153.842797 78.2947723 245.733498 139.812197 258.625576 133.1038"></polygon>
                <g id="Group-5" transform="translate(0.000000, 0.161002)">
                    <mask id="mask-2" fill="white">
                        <use xlink:href="#path-1"></use>
                    </mask>
                    <g id="Clip-4"></g>
                    <path d="M153.860603,187.371208 L153.842759,78.1337708 L258.625538,132.942799 L153.860603,187.371208 Z M383.918407,59.2098121 C383.918407,59.2098121 380.128763,32.4184742 368.502051,20.6204504 C353.755773,5.13537753 337.226669,5.05887326 329.646622,4.1522406 C275.380912,0.219692853 193.979499,0.219692853 193.979499,0.219692853 L193.810935,0.219692853 C193.810935,0.219692853 112.411421,0.219692853 58.1438121,4.1522406 C50.5633855,5.05887326 34.0403562,5.13537753 19.2887632,20.6204504 C7.66167123,32.4184742 3.87810176,59.2098121 3.87810176,59.2098121 C3.87810176,59.2098121 0,90.6713359 0,122.13324 L0,151.62849 C0,183.089633 3.87810176,214.551157 3.87810176,214.551157 C3.87810176,214.551157 7.66167123,241.342876 19.2887632,253.1409 C34.0403562,268.625592 53.4175773,268.136117 62.0481096,269.759073 C93.0717847,272.741598 193.895597,273.664597 193.895597,273.664597 C193.895597,273.664597 275.380912,273.541657 329.646622,269.608729 C337.226669,268.702477 353.755773,268.625592 368.502051,253.1409 C380.128763,241.342876 383.918407,214.551157 383.918407,214.551157 C383.918407,214.551157 387.790814,183.089633 387.790814,151.62849 L387.790814,122.13324 C387.790814,90.6713359 383.918407,59.2098121 383.918407,59.2098121 L383.918407,59.2098121 Z" id="Fill-3" fill="#ffffff" mask="url(#mask-2)"></path>
                </g>
            </g>
        </g>
    </g>
</svg>
