<?xml version="1.0" encoding="utf-8"?><svg version="1.1" id="Ebene_1" xmlns="http://www.w3.org/2000/svg" xmlns:xlink="http://www.w3.org/1999/xlink" x="0px" y="0px" viewBox="-225 -74 512 512" style="enable-background:new -225 -74 512 512;" xml:space="preserve"><style type="text/css">.st0{fill:#FFFFFF;}</style><title>youtube</title><desc>Created with Sketch.</desc><g><path class="st0" d="M31,24.4c51.3,0,57.5,0.1,77.9,1.1c18.8,0.8,28.9,3.9,35.7,6.6c9,3.5,15.4,7.6,22.1,14.4c6.8,6.8,10.9,13.1,14.4,22.1c2.7,6.8,5.8,16.9,6.6,35.7c1,20.3,1.1,26.4,1.1,77.9s-0.1,57.5-1.1,77.9c-0.8,18.8-3.9,28.9-6.6,35.7c-3.5,9-7.6,15.4-14.4,22.1c-6.8,6.8-13.1,10.9-22.1,14.4c-6.8,2.7-16.9,5.8-35.7,6.6c-20.3,1-26.4,1.1-77.9,1.1s-57.5-0.1-77.9-1.1c-18.8-0.8-28.9-3.9-35.7-6.6c-9-3.5-15.4-7.6-22.1-14.4s-10.9-13.1-14.4-22.1c-2.7-6.8-5.8-16.9-6.6-35.7c-1-20.3-1.1-26.4-1.1-77.9s0.1-57.5,1.1-77.9c0.8-18.8,3.9-28.9,6.6-35.7c3.5-9,7.6-15.4,14.4-22.1c6.8-6.8,13.1-10.9,22.1-14.4c6.8-2.6,17-5.7,35.8-6.5C-26.5,24.6-20.3,24.4,31,24.4 M31-10.3c-52.3,0-58.8,0.3-79.4,1.1C-68.9-8.2-83-5-95.1-0.3c-12.7,4.9-23.4,11.6-34.1,22.1c-10.7,10.7-17.3,21.4-22.1,34.1c-4.8,12.3-8,26.2-8.9,46.7c-1,20.6-1.1,27.1-1.1,79.4s0.3,58.8,1.1,79.4c1,20.5,4.2,34.6,8.9,46.7c4.9,12.7,11.6,23.4,22.1,34.1c10.7,10.7,21.4,17.3,34.1,22.1c12.3,4.8,26.2,8,46.7,8.9c20.6,1,27.1,1.1,79.4,1.1s58.8-0.3,79.4-1.1c20.5-1,34.6-4.2,46.7-8.9c12.7-4.9,23.4-11.6,34.1-22.1c10.7-10.7,17.3-21.4,22.1-34.1c4.8-12.3,8-26.2,8.9-46.7c1-20.6,1.1-27.1,1.1-79.4s-0.3-58.8-1.1-79.4c-1-20.5-4.2-34.6-8.9-46.7c-4.9-12.7-11.6-23.4-22.1-34.1c-10.7-10.6-21.4-17.3-34.1-22c-12.3-4.8-26.2-8-46.7-8.9C89.8-10.1,83.3-10.3,31-10.3L31-10.3z"/><path class="st0" d="M31,83.4c-54.6,0-98.9,44.3-98.9,98.9s44.3,98.9,98.9,98.9s98.9-44.3,98.9-98.9S85.6,83.4,31,83.4z M31,246.4c-35.4,0-64.2-28.8-64.2-64.2S-4.4,118,31,118s64.2,28.9,64.2,64.3S66.4,246.4,31,246.4z"/><circle class="st0" cx="133.8" cy="79.4" r="23.1"/></g></svg>